<?xml version="1.0" standalone="no"?>
<!DOCTYPE svg PUBLIC "-//W3C//DTD SVG 20010904//EN"
 "http://www.w3.org/TR/2001/REC-SVG-20010904/DTD/svg10.dtd">
<svg version="1.0" xmlns="http://www.w3.org/2000/svg"
 width="150.000000pt" height="154.000000pt" viewBox="0 0 150.000000 154.000000"
 preserveAspectRatio="xMidYMid meet">

<g transform="translate(0.000000,154.000000) scale(0.100000,-0.100000)"
fill="#000000" stroke="none">
<path d="M664 1517 c-17 -6 -63 -31 -102 -55 -53 -33 -88 -46 -139 -54 -159
-25 -190 -46 -219 -144 -25 -89 -47 -124 -108 -177 -31 -27 -63 -62 -72 -79
-19 -37 -15 -115 9 -204 16 -56 16 -67 2 -125 -19 -84 -18 -146 4 -188 10 -18
49 -56 87 -85 61 -45 75 -62 119 -146 62 -118 81 -130 203 -137 l87 -4 -55 23
c-168 72 -311 218 -365 374 -64 185 -57 374 19 539 133 286 428 435 751 380
145 -24 227 -67 336 -175 148 -146 204 -280 204 -485 0 -105 -4 -131 -29 -209
-34 -103 -100 -209 -177 -282 -57 -55 -156 -124 -176 -124 -6 0 -14 -4 -17 -8
-2 -4 32 -4 76 0 112 11 137 31 180 146 29 77 41 95 107 161 73 74 101 119
101 163 0 13 -12 59 -27 103 -25 76 -26 84 -15 160 24 167 13 204 -83 264 -72
45 -102 81 -134 161 -45 107 -72 123 -221 130 -112 5 -117 6 -178 44 -69 42
-120 52 -168 33z"/>
<path d="M655 1360 c-3 -6 -3 -20 1 -33 6 -20 4 -20 -24 6 -36 34 -44 26 -31
-32 14 -61 4 -76 -11 -18 -12 46 -25 65 -37 54 -3 -3 2 -27 11 -53 8 -25 13
-51 9 -57 -4 -7 5 -8 28 -3 39 8 59 23 43 34 -13 9 -26 42 -16 42 9 0 37 -43
34 -53 -1 -4 35 -6 79 -5 103 4 116 17 73 73 -25 33 -26 36 -7 24 16 -9 26
-10 33 -3 7 7 3 15 -15 24 -22 12 -28 12 -42 -3 -16 -16 -16 -19 5 -46 13 -18
18 -32 12 -36 -6 -3 -10 -1 -10 5 0 8 -10 9 -30 5 -35 -8 -42 10 -8 19 25 6
16 21 -17 29 -19 5 -19 5 3 12 32 10 27 25 -8 25 -30 0 -30 -1 -31 -57 l-2
-58 -10 58 c-10 55 -19 68 -32 47z"/>
<path d="M884 1335 c-4 -9 -1 -28 5 -42 12 -27 6 -47 -8 -24 -11 16 -21 1 -17
-25 4 -30 40 -29 55 2 10 22 9 31 -4 51 -9 14 -14 27 -11 30 3 3 8 -2 12 -11
9 -23 21 -20 20 7 -1 27 -43 37 -52 12z"/>
<path d="M953 1316 c4 -10 -1 -37 -12 -61 l-19 -43 28 -12 c21 -9 34 -9 48 -1
24 13 40 -2 23 -23 -8 -9 -3 -16 17 -28 26 -15 28 -15 58 18 17 19 28 37 25
40 -3 4 -1 4 6 0 20 -11 26 15 7 29 -24 18 -37 19 -31 3 4 -13 -52 -93 -59
-85 -3 2 5 24 16 48 11 24 20 51 20 60 0 29 -29 29 -63 1 -55 -47 -67 -55 -67
-45 0 6 16 26 35 46 37 38 43 53 23 55 -7 0 -24 4 -37 8 -21 6 -23 4 -18 -10z
m87 -82 c0 -8 -5 -12 -10 -9 -6 4 -8 11 -5 16 9 14 15 11 15 -7z"/>
<path d="M483 1313 c-9 -3 -6 -17 11 -51 13 -26 21 -53 19 -59 -5 -15 6 -17
26 -4 11 7 10 13 -4 35 -16 24 -16 26 -1 20 11 -4 16 0 16 14 0 46 -24 63 -67
45z m42 -23 c3 -5 1 -10 -4 -10 -6 0 -11 5 -11 10 0 6 2 10 4 10 3 0 8 -4 11
-10z"/>
<path d="M423 1277 c-20 -11 -21 -15 -9 -32 43 -64 46 -78 7 -35 -46 50 -66
49 -28 -2 17 -22 23 -38 17 -47 -6 -11 -15 -5 -40 23 -25 28 -36 34 -44 25 -8
-8 -8 -13 1 -16 13 -5 68 -73 59 -73 -3 0 -24 16 -45 35 -22 20 -42 31 -45 26
-4 -5 12 -24 34 -42 54 -44 51 -58 -4 -19 -24 18 -49 29 -55 26 -12 -8 -15
-27 -3 -25 26 4 34 -1 22 -16 -9 -11 -16 -12 -26 -4 -7 6 -18 8 -24 4 -7 -4 3
-17 27 -32 41 -28 68 -51 43 -38 -12 6 -12 5 -3 -5 9 -10 25 1 75 52 35 35 74
71 88 80 23 14 23 16 7 32 -18 18 -24 41 -8 31 18 -11 23 16 7 40 -19 28 -22
29 -53 12z m37 -21 c0 -11 -19 -15 -25 -6 -3 5 1 10 9 10 9 0 16 -2 16 -4z
m-120 -188 c0 -18 -2 -19 -17 -7 -10 7 -20 14 -22 16 -1 1 0 6 3 12 10 16 36
1 36 -21z"/>
<path d="M615 1190 c-120 -38 -232 -143 -275 -257 -26 -68 -36 -174 -22 -223
9 -30 10 -25 5 31 -10 122 33 242 120 330 76 77 165 117 292 129 l80 7 -70 1
c-44 1 -93 -6 -130 -18z"/>
<path d="M1121 1165 c-41 -45 -42 -47 -25 -66 9 -10 21 -19 26 -19 13 0 98 81
98 94 0 5 -3 6 -7 3 -3 -4 -16 2 -28 13 l-22 21 -42 -46z m59 -12 c0 -13 -3
-13 -15 -3 -8 7 -12 16 -9 21 8 13 24 1 24 -18z m-30 -29 c0 -16 -16 -19 -25
-4 -8 13 4 32 16 25 5 -4 9 -13 9 -21z m-39 -21 c13 -16 12 -17 -3 -4 -10 7
-18 15 -18 17 0 8 8 3 21 -13z"/>
<path d="M566 1111 c-8 -12 -9 -47 -3 -93 5 -39 -1 -46 -21 -26 -22 22 -14
-16 11 -52 20 -30 60 -59 43 -31 -4 6 0 11 9 11 12 0 15 -5 11 -16 -8 -22 24
-47 41 -32 7 6 22 8 33 5 11 -3 20 -1 20 4 0 5 -6 9 -14 9 -22 0 -58 57 -51
79 3 11 -6 42 -22 76 -24 48 -25 57 -13 65 12 8 9 10 -12 10 -15 0 -29 -4 -32
-9z"/>
<path d="M1197 1094 c-31 -20 -37 -30 -35 -54 2 -25 6 -29 23 -24 55 18 106
45 100 54 -9 15 -27 12 -55 -10 -14 -11 -31 -20 -37 -20 -25 0 -12 16 32 40
29 16 40 27 32 32 -16 10 -17 10 -60 -18z"/>
<path d="M200 1040 l-22 -30 57 -26 c45 -21 59 -23 70 -14 15 13 21 35 7 26
-4 -2 -18 2 -32 10 -14 7 -20 13 -14 14 7 0 15 8 18 17 4 10 4 14 0 11 -4 -4
-16 -1 -28 7 -28 20 -32 19 -56 -15z m50 -4 c0 -11 -19 -15 -25 -6 -3 5 1 10
9 10 9 0 16 -2 16 -4z"/>
<path d="M676 1055 c4 -8 8 -15 10 -15 2 0 4 7 4 15 0 8 -4 15 -10 15 -5 0 -7
-7 -4 -15z"/>
<path d="M1240 1017 c-26 -13 -46 -30 -48 -41 -3 -17 -1 -17 28 4 39 28 47 22
15 -12 -33 -36 -17 -43 49 -22 42 13 51 20 42 29 -9 10 -17 10 -38 -1 -38 -20
-36 -3 2 19 17 10 30 23 30 28 0 6 -4 7 -10 4 -5 -3 -10 -1 -10 4 0 15 -7 13
-60 -12z"/>
<path d="M156 934 c-9 -23 -5 -25 56 -33 l53 -7 -62 -13 c-34 -8 -64 -20 -67
-27 -6 -17 60 -52 87 -46 9 2 17 -1 17 -7 0 -12 -5 -13 -60 -15 -30 -1 -35 -5
-38 -28 -4 -30 12 -36 86 -29 29 2 42 8 42 18 0 11 -7 14 -25 11 -14 -3 -25
-1 -25 3 0 8 21 13 41 11 3 -1 6 12 7 29 0 16 -3 27 -7 25 -4 -3 -13 -1 -20 3
-9 6 -5 12 13 24 28 19 44 73 26 90 -8 9 -14 8 -23 -4 -10 -14 -17 -14 -47 -3
-46 17 -47 17 -54 -2z m54 -84 c0 -5 -2 -10 -4 -10 -3 0 -8 5 -11 10 -3 6 -1
10 4 10 6 0 11 -4 11 -10z"/>
<path d="M1271 926 c-28 -7 -45 -18 -47 -29 -1 -9 -2 -17 -1 -17 21 2 125 48
121 53 -9 9 -18 8 -73 -7z"/>
<path d="M820 906 c0 -9 5 -16 10 -16 6 0 10 4 10 9 0 6 -4 13 -10 16 -5 3
-10 -1 -10 -9z"/>
<path d="M739 890 c18 -16 27 -18 37 -9 8 6 11 16 8 21 -4 6 -10 5 -16 -3 -7
-11 -11 -11 -15 -1 -2 6 -12 12 -21 12 -14 -1 -12 -5 7 -20z"/>
<path d="M1283 878 c-36 -18 -61 -45 -51 -53 2 -1 33 -5 70 -7 51 -4 65 -3 62
7 -3 7 -24 16 -46 19 -47 8 -47 12 0 19 39 6 47 12 37 26 -9 15 -24 13 -72
-11z"/>
<path d="M800 873 c0 -13 29 -38 35 -31 3 3 -4 13 -15 23 -11 10 -20 13 -20 8z"/>
<path d="M618 819 c28 -28 52 -32 52 -9 0 8 -62 40 -77 40 -3 0 8 -14 25 -31z"/>
<path d="M760 841 c0 -5 5 -13 10 -16 6 -3 10 -2 10 4 0 5 -4 13 -10 16 -5 3
-10 2 -10 -4z"/>
<path d="M871 831 c-12 -8 -12 -12 2 -26 10 -9 14 -21 11 -27 -3 -5 -12 0 -21
11 -8 12 -19 21 -26 21 -8 0 -8 -3 1 -12 27 -27 14 -41 -33 -36 -24 3 -62 2
-84 -2 -40 -7 -41 -7 -35 19 5 25 5 25 -10 7 -9 -11 -16 -23 -16 -27 0 -18
-44 7 -61 35 -10 17 -19 24 -19 16 0 -8 -3 -24 -6 -36 -5 -18 0 -22 28 -28
l33 -7 -25 -13 c-14 -7 -24 -18 -22 -25 1 -7 -3 -11 -10 -8 -7 2 -12 10 -10
17 1 6 -3 10 -10 8 -7 -3 -13 -11 -13 -19 0 -19 -42 -76 -80 -110 -16 -15 -27
-30 -24 -34 7 -6 59 42 94 87 24 30 56 48 85 48 16 0 20 -5 16 -15 -4 -12 3
-15 34 -15 35 0 39 -3 42 -27 2 -24 8 -29 36 -31 40 -4 62 12 62 44 0 20 5 24
28 24 16 0 44 7 62 16 27 14 34 14 41 3 13 -21 11 -27 -11 -34 -11 -3 -20 -11
-20 -16 0 -5 -5 -9 -11 -9 -7 0 -18 -8 -26 -17 -10 -13 -16 -15 -19 -5 -7 16
-29 15 -46 -1 -7 -8 -23 -19 -34 -25 -12 -6 -24 -23 -26 -37 -7 -33 10 -32 23
2 7 19 13 23 18 15 8 -13 41 -6 41 9 0 14 36 11 49 -4 7 -9 7 -17 1 -23 -17
-17 14 -47 48 -48 18 0 32 -4 32 -8 0 -15 18 -8 24 9 5 11 1 22 -10 30 -14 10
-15 15 -4 28 12 15 15 14 32 -7 l18 -23 0 22 c0 12 4 24 9 27 13 9 -35 103
-59 116 -11 6 -20 18 -20 26 0 8 -4 13 -9 10 -5 -3 -14 0 -20 8 -9 10 -8 16 4
26 42 35 -8 100 -54 71z"/>
<path d="M1240 770 c0 -36 12 -38 33 -7 l16 22 0 -22 c1 -13 7 -23 16 -23 9 0
12 6 9 15 -4 8 -1 15 5 15 6 0 11 -6 11 -14 0 -14 24 -29 32 -20 3 2 3 17 0
32 -4 28 -6 29 -63 31 l-59 2 0 -31z"/>
<path d="M758 783 c6 -2 18 -2 25 0 6 3 1 5 -13 5 -14 0 -19 -2 -12 -5z"/>
<path d="M1236 721 c-5 -7 2 -11 16 -12 l23 0 -22 -9 c-33 -13 -28 -28 7 -24
17 2 30 0 30 -5 0 -13 48 -19 59 -8 6 6 11 21 11 34 0 17 -6 23 -22 23 -13 0
-39 3 -59 6 -22 4 -39 2 -43 -5z m84 -31 c0 -5 -2 -10 -4 -10 -3 0 -8 5 -11
10 -3 6 -1 10 4 10 6 0 11 -4 11 -10z"/>
<path d="M148 715 c-10 -10 5 -55 18 -55 8 0 14 5 14 10 0 6 3 9 8 9 17 -4 92
14 92 22 0 15 -17 18 -60 8 -31 -7 -46 -7 -48 0 -4 12 -15 14 -24 6z"/>
<path d="M254 671 c-5 -4 -28 -13 -51 -20 -33 -9 -43 -17 -43 -32 l0 -20 26
20 c38 30 52 26 22 -6 -24 -27 -46 -69 -31 -61 5 3 32 15 61 28 52 24 73 48
30 34 -49 -15 -53 -15 -33 0 56 42 54 40 41 53 -8 6 -17 8 -22 4z"/>
<path d="M1225 653 c-16 -16 -16 -18 5 -35 25 -20 36 -22 45 -8 3 6 14 10 23
9 11 0 12 -3 5 -6 -19 -7 -15 -20 8 -26 27 -7 36 18 14 43 -13 15 -22 17 -42
9 -36 -13 -48 -12 -34 5 18 21 -4 29 -24 9z"/>
<path d="M820 649 c0 -5 5 -7 10 -4 6 3 10 8 10 11 0 2 -4 4 -10 4 -5 0 -10
-5 -10 -11z"/>
<path d="M1200 597 c0 -7 23 -21 52 -32 41 -14 48 -20 33 -25 -12 -4 -32 0
-50 12 -37 22 -51 23 -59 2 -3 -8 -2 -13 3 -10 11 7 82 -30 73 -38 -3 -4 0
-12 8 -17 11 -8 4 -9 -25 -4 -22 4 -48 14 -57 22 -33 30 -35 2 -2 -33 19 -19
34 -45 34 -57 0 -20 1 -20 16 -5 16 15 16 18 0 33 -9 10 -14 20 -11 23 3 3 11
0 17 -6 19 -19 26 -15 51 26 43 68 42 70 -19 97 -66 29 -64 29 -64 12z"/>
<path d="M285 571 c8 -25 -11 -37 -23 -15 -5 10 -15 14 -21 10 -9 -6 -9 -11 0
-22 14 -17 -2 -19 -19 -2 -17 17 -25 3 -12 -21 6 -12 8 -26 5 -31 -8 -14 -3
-13 36 7 19 9 38 22 42 30 4 7 17 13 27 13 11 0 20 5 20 11 0 5 -4 8 -9 4 -6
-3 -15 4 -21 15 -14 25 -33 26 -25 1z"/>
<path d="M306 514 c-9 -24 -8 -26 14 -19 16 5 20 2 20 -19 0 -29 -33 -44 -56
-25 -12 10 -12 14 -2 20 16 10 3 23 -17 16 -20 -8 -14 -66 9 -79 23 -13 61 -3
86 22 26 26 25 42 -5 74 -28 30 -40 33 -49 10z"/>
<path d="M745 500 c-3 -5 -1 -10 4 -10 6 0 11 5 11 10 0 6 -2 10 -4 10 -3 0
-8 -4 -11 -10z"/>
<path d="M648 420 c2 -16 8 -30 13 -30 5 0 9 14 9 30 0 18 -5 30 -13 30 -9 0
-12 -10 -9 -30z"/>
<path d="M695 441 c-3 -5 0 -13 6 -16 5 -4 8 -13 5 -21 -3 -8 -2 -14 3 -14 12
0 41 46 34 54 -10 9 -41 7 -48 -3z"/>
<path d="M767 432 c-22 -25 -21 -29 8 -34 22 -5 25 -2 25 23 0 33 -10 37 -33
11z"/>
<path d="M831 436 c-16 -19 -8 -46 13 -46 17 0 31 18 21 28 -3 3 -10 0 -14 -7
-5 -8 -11 -9 -15 -3 -3 6 -1 12 5 14 7 2 10 10 8 17 -4 10 -8 10 -18 -3z"/>
<path d="M1093 374 c-9 -23 13 -40 32 -24 12 10 13 16 4 26 -15 18 -28 18 -36
-2z"/>
<path d="M367 366 c-7 -18 1 -26 25 -26 11 0 18 7 18 20 0 23 -35 28 -43 6z"/>
<path d="M418 323 c-20 -21 -24 -38 -8 -28 6 3 10 -2 10 -11 0 -13 3 -15 11
-7 13 13 41 -9 53 -41 4 -12 13 -17 26 -13 10 3 21 0 24 -7 3 -6 5 -5 5 3 1
11 5 10 16 -5 15 -19 16 -19 13 1 -2 11 -7 24 -13 28 -6 5 -4 7 5 5 8 -3 17
-15 20 -29 4 -15 13 -24 25 -24 11 0 26 -4 33 -8 18 -12 30 -1 30 29 0 20 -4
25 -19 21 -11 -3 -22 -1 -25 5 -3 5 -15 8 -25 5 -11 -3 -19 -1 -19 3 0 5 -17
14 -37 21 -21 6 -49 20 -62 31 -18 14 -26 15 -32 7 -5 -8 -8 -4 -11 11 -3 22
-3 22 -20 3z m117 -73 c3 -6 -1 -7 -9 -4 -9 3 -16 1 -16 -6 0 -6 -5 -8 -10 -5
-6 4 -8 11 -4 16 3 6 -2 17 -12 25 -16 13 -14 12 13 0 17 -9 35 -20 38 -26z
m80 -20 c4 -6 16 -8 28 -5 12 2 17 2 10 -1 -7 -3 -9 -13 -6 -22 6 -15 3 -14
-15 2 -12 11 -22 14 -22 8 0 -7 -4 -12 -10 -12 -5 0 -10 9 -10 20 0 21 15 27
25 10z"/>
<path d="M1054 321 c10 -11 15 -25 11 -30 -9 -15 7 -13 29 4 19 15 19 15 -2
15 -13 0 -25 7 -28 15 -4 8 -11 15 -17 15 -5 0 -2 -9 7 -19z"/>
<path d="M998 304 c-29 -15 -39 -38 -13 -28 8 4 17 -1 21 -10 3 -9 10 -16 15
-16 6 0 5 8 -1 19 -12 24 -13 31 -1 31 5 0 12 -10 15 -22 7 -22 7 -22 15 -3 5
12 4 25 -1 33 -13 15 -16 15 -50 -4z"/>
<path d="M917 265 c-28 -14 -30 -15 -47 -15 -5 0 -10 -8 -11 -17 0 -15 -2 -15
-9 2 l-9 20 0 -20 c0 -11 4 -27 9 -35 9 -13 10 -13 10 0 0 13 2 13 10 0 7 -12
12 -12 29 4 12 11 21 14 21 8 0 -6 7 -9 15 -6 8 4 15 10 15 16 0 5 -4 6 -10 3
-6 -4 -7 1 -3 11 4 12 3 15 -5 10 -7 -4 -12 -2 -12 3 0 20 27 11 39 -11 6 -13
9 -15 7 -5 -5 15 -3 16 16 6 18 -10 20 -9 15 6 -4 9 -7 19 -7 21 0 3 -5 2 -10
-1 -6 -4 -17 -2 -23 4 -9 7 -21 6 -40 -4z m-27 -41 c0 -8 -4 -12 -10 -9 -5 3
-10 10 -10 16 0 5 5 9 10 9 6 0 10 -7 10 -16z"/>
<path d="M440 261 c0 -5 7 -11 15 -15 8 -3 15 -1 15 3 0 5 -7 11 -15 15 -8 3
-15 1 -15 -3z"/>
<path d="M702 228 c-16 -16 -15 -33 2 -47 9 -8 16 -9 20 -2 4 6 20 8 36 4 22
-4 30 -2 30 8 0 12 2 12 9 0 10 -16 41 -8 41 10 0 8 -4 8 -15 -1 -10 -9 -15
-9 -15 -1 0 21 2 26 11 23 5 -1 9 2 9 7 0 11 -59 9 -77 -2 -6 -4 -14 -3 -18 3
-8 13 -18 13 -33 -2z m85 -21 c-6 -20 -27 -19 -27 2 0 14 5 19 15 14 9 -3 14
-10 12 -16z m-57 -2 c0 -8 -4 -15 -9 -15 -13 0 -22 16 -14 24 11 11 23 6 23
-9z"/>
<path d="M920 113 c-50 -17 -236 -23 -310 -10 l-45 7 75 -42 c118 -66 180 -57
310 42 29 23 29 23 -30 3z"/>
</g>
</svg>
